<svg width="170" height="40" viewBox="0 0 170 40" fill="none" xmlns="http://www.w3.org/2000/svg">
<path d="M36.7389 21.6875C33.6418 23.6376 31.1374 25.2095 29.2258 26.4033C29.8016 28.1067 30.8156 29.6286 32.1659 30.8161C33.4582 31.9163 34.8088 32.4656 36.218 32.4639C36.8944 32.4734 37.5709 32.4442 38.244 32.3763C38.7408 32.3066 39.221 32.1479 39.6615 31.9079C40.2455 31.5755 40.7772 31.1587 41.2393 30.6708L41.5924 31.0439C41.1888 31.4485 40.7642 31.8314 40.3201 32.191C39.9019 32.5265 39.113 32.8947 37.9535 33.3029C36.5781 33.7412 35.1392 33.9469 33.696 33.9114C31.3586 33.9114 29.4386 33.4874 27.936 32.6393C26.5259 31.8744 25.3882 30.6903 24.6803 29.2508C23.988 27.7948 23.6377 26.1997 23.656 24.5876C23.6478 22.7869 24.0342 21.0063 24.7879 19.371C25.5391 17.73 26.7456 16.3393 28.2641 15.364C29.8318 14.3372 31.7626 13.823 34.0567 13.8213C35.97 13.8213 37.5119 14.1502 38.6822 14.808C39.8526 15.4658 40.6716 16.1896 41.1391 16.9793C41.6049 17.7674 41.7543 18.2683 41.5874 18.482C41.4204 18.6957 39.8043 19.7642 36.7389 21.6875ZM35.7697 15.7547C35.2304 14.9416 34.3038 14.5351 32.9898 14.5351C31.7226 14.5351 30.629 15.0668 29.7091 16.1303C28.7891 17.1938 28.3292 18.9327 28.3292 21.347C28.3237 22.7685 28.5287 24.1829 28.9377 25.5443C30.7833 24.6005 32.5314 23.4773 34.1569 22.1909C35.7747 20.9137 36.5836 19.6073 36.5836 18.2716C36.5693 17.3741 36.2857 16.5016 35.7697 15.7672V15.7547Z" fill="white"/>
<path d="M54.8481 14.3723C55.7602 14.6738 56.6329 15.0833 57.4477 15.592C58.1156 16.0344 58.4495 16.2798 58.4495 16.3282C58.3543 16.567 58.1448 17.0628 57.8209 17.8158C57.4981 18.5687 57.1145 19.2941 56.6739 19.9847C56.2306 20.6784 55.8199 21.0265 55.4367 21.0265C55.2954 21.0175 55.1599 20.9665 55.0479 20.8799C54.9359 20.7933 54.8524 20.6751 54.8081 20.5406C54.5835 20.0234 54.3977 19.4901 54.2521 18.9453C54.051 18.1918 53.794 17.4542 53.4833 16.7389C53.2102 16.1326 52.7984 15.5991 52.2812 15.1812C51.6852 14.7275 50.9482 14.4987 50.2001 14.5351C49.2901 14.5351 48.5855 14.7856 48.0863 15.2864C47.5871 15.7873 47.3367 16.4927 47.335 17.4026C47.3016 18.2109 47.5554 19.0049 48.0513 19.644C48.532 20.2322 49.1388 20.7047 49.8269 21.0265C50.756 21.4477 51.7074 21.8181 52.6769 22.1359C53.7102 22.4617 54.7223 22.8515 55.7072 23.303C56.4716 23.6638 57.1413 24.1981 57.6631 24.8632C58.2133 25.6085 58.4917 26.5196 58.452 27.4452C58.4553 28.5792 58.1384 29.6912 57.5379 30.6533C56.9305 31.6419 56.0782 32.4571 55.0636 33.0199C54.0179 33.6069 52.8367 33.91 51.6376 33.899C50.4167 33.8772 49.2044 33.6902 48.0337 33.343C46.786 32.9999 45.5586 32.5869 44.3573 32.1058C43.2354 31.6525 42.6719 31.4121 42.6719 31.3896C42.8112 30.8963 42.9784 30.4114 43.1728 29.9371C43.4743 29.1089 43.8524 28.3108 44.3022 27.5529C44.7205 26.8592 45.1312 26.5837 45.5394 26.7264C45.8066 26.8403 46.0365 27.0268 46.203 27.2648C46.4284 27.5529 46.7465 28.0162 47.1522 28.6648C47.9044 29.8551 48.7827 30.9609 49.7718 31.9631C50.1551 32.353 50.6129 32.6619 51.118 32.8715C51.6231 33.081 52.1651 33.1869 52.7119 33.1827C53.1001 33.1932 53.4859 33.1183 53.8421 32.9634C54.1982 32.8084 54.5159 32.5773 54.773 32.2861C55.2839 31.7554 55.5725 31.0494 55.5795 30.3127C55.5795 29.4546 55.1621 28.7374 54.3273 28.1614C53.4925 27.5854 52.2018 26.9401 50.4555 26.2256C49.1632 25.6746 48.1047 25.1845 47.2799 24.7555C46.488 24.3484 45.7674 23.8156 45.1462 23.1777C44.563 22.5861 44.1968 21.8148 44.1069 20.9889L44.0718 20.488C44.0909 19.4919 44.3106 18.5098 44.7179 17.6005C45.2006 16.5187 45.9827 15.5975 46.9719 14.9458C48.0454 14.1945 49.4796 13.818 51.2744 13.8163C52.4883 13.8007 53.6963 13.9886 54.8481 14.3723V14.3723Z" fill="white"/>
<path d="M67.0569 14.5354C66.9596 14.9135 66.8819 15.2963 66.824 15.6823C66.7171 16.3034 66.6094 17.2835 66.5009 18.6225C66.3924 19.9615 66.339 21.5877 66.3406 23.501C66.3406 25.4127 66.394 27.0556 66.5009 28.4297C66.6077 29.8037 66.7154 30.838 66.824 31.5326C66.9308 32.2255 67.0084 32.6563 67.0569 32.8249H61.3193C61.3669 32.632 61.4445 32.1612 61.5522 31.4074C61.6599 30.6535 61.7676 29.5617 61.8753 28.1267C61.983 26.6916 62.0356 25.0312 62.0356 23.1404C62.0356 21.2496 61.983 19.6693 61.8753 18.3821C61.7676 17.0948 61.6474 16.1106 61.5172 15.4069C61.387 14.7032 61.3193 14.4051 61.3193 14.5278L67.0569 14.5354ZM62.3962 12.031C61.9598 11.6143 61.6821 11.0585 61.6109 10.4593C61.5396 9.86012 61.6792 9.2548 62.0058 8.74735C62.3323 8.2399 62.8253 7.86203 63.4002 7.67858C63.9751 7.49514 64.5959 7.5176 65.156 7.74211C65.7161 7.96662 66.1805 8.37917 66.4695 8.90889C66.7585 9.43861 66.8541 10.0524 66.7397 10.6449C66.6253 11.2374 66.3082 11.7716 65.8428 12.1557C65.3774 12.5398 64.7928 12.7498 64.1893 12.7497C63.8566 12.7581 63.5258 12.698 63.2173 12.573C62.9088 12.4481 62.6293 12.261 62.3962 12.0235V12.031Z" fill="white"/>
<path d="M86.6364 13.6208C86.6589 13.8962 86.6714 14.2244 86.6714 14.605C86.6714 15.6819 86.5161 16.3756 86.2056 16.6861C86.1788 16.7176 86.1459 16.7434 86.1089 16.7619C86.0719 16.7804 86.0315 16.7913 85.9902 16.7939C85.87 16.7939 85.7022 16.6386 85.4894 16.328C85.0881 15.7324 84.569 15.2253 83.9642 14.8379C83.5095 14.5424 82.9834 14.3754 82.4416 14.3546C82.0681 14.344 81.7016 14.4576 81.3997 14.6776C82.2417 15.0757 82.9838 15.6577 83.571 16.3806C84.1286 17.0768 84.4261 17.9456 84.4125 18.8374C84.4273 19.3215 84.3427 19.8035 84.1639 20.2536C83.9852 20.7037 83.7161 21.1124 83.3732 21.4545C82.6436 22.1706 81.7517 22.6999 80.7736 22.9972C79.7479 23.3295 78.6763 23.4985 77.5981 23.4981C76.2767 23.5091 74.9645 23.2782 73.7263 22.8168C73.1453 22.8713 72.5948 23.102 72.1485 23.478C71.7178 23.8504 71.5024 24.4547 71.5024 25.2912C71.5024 26.0325 71.7178 26.5284 72.1485 26.7788C72.5793 27.0292 73.2964 27.1545 74.2998 27.1545C74.9209 27.1545 75.4117 27.142 75.7699 27.1194L77.9587 27.0818C80.1792 27.0818 82.05 27.4108 83.571 28.0686C85.092 28.7264 85.8508 30.0712 85.8475 32.1031C85.8545 33.5451 85.3951 34.9507 84.5377 36.1101C83.6739 37.3094 82.5374 38.2863 81.2219 38.9601C79.9982 39.6236 78.6318 39.9802 77.24 39.9994C76.1163 39.9777 75.0008 39.8033 73.9242 39.481C72.7496 39.1633 71.6555 38.6009 70.7135 37.8307C70.2816 37.4932 69.9338 37.0602 69.6975 36.5657C69.4611 36.0712 69.3426 35.5287 69.3511 34.9806C69.3312 34.5454 69.4039 34.111 69.5645 33.706C69.7251 33.301 69.97 32.9348 70.2828 32.6316C70.9152 32.0399 71.6765 31.6035 72.5066 31.3568C71.481 31.0791 70.5667 30.4902 69.8896 29.6714C69.3027 28.9394 68.9861 28.0275 68.993 27.0893C68.971 26.5187 69.081 25.9508 69.3142 25.4296C69.5475 24.9084 69.8978 24.4479 70.3379 24.0841C71.1429 23.38 72.0914 22.8596 73.1177 22.5589C72.349 22.2095 71.6731 21.6845 71.1443 21.0262C70.6648 20.3986 70.4123 19.627 70.428 18.8374C70.4214 18.3206 70.5197 17.8078 70.7168 17.33C70.914 16.8522 71.2059 16.4193 71.575 16.0575C72.3622 15.2671 73.3275 14.6771 74.3899 14.337C75.4213 13.9797 76.5067 13.8034 77.5981 13.8161C78.733 13.7793 79.8615 14.0002 80.8988 14.4623L81.545 13.8161C82.4282 12.9312 83.4082 12.4896 84.4851 12.4913C84.8243 12.4891 85.1618 12.5372 85.4869 12.6341C85.7398 12.7063 85.9854 12.8018 86.2206 12.9195C86.4009 13.0172 86.5137 13.0774 86.5613 13.0999C86.6014 13.271 86.6265 13.4453 86.6364 13.6208V13.6208ZM82.5292 31.9804C81.9907 31.6348 81.2219 31.4595 80.2176 31.4595C79.7618 31.4595 78.9855 31.5096 77.886 31.6047C76.7866 31.6999 75.9727 31.7475 75.4468 31.7475C75.0635 31.7425 74.6807 31.7182 74.2998 31.6749C73.8665 32.1082 73.523 32.6228 73.2892 33.1893C73.0554 33.7558 72.9358 34.3628 72.9374 34.9756C72.9216 35.5394 73.0179 36.1007 73.2208 36.627C73.4238 37.1532 73.7292 37.6338 74.1194 38.041C74.9108 38.8641 75.951 39.2765 77.24 39.2781C78.2136 39.2623 79.1706 39.0233 80.0373 38.5795C80.9663 38.1354 81.7772 37.478 82.404 36.6611C83.0151 35.8735 83.3433 34.9031 83.3356 33.9063C83.3356 32.9696 83.0668 32.3277 82.5292 31.9804ZM80.1625 21.8502C80.605 21.2508 80.8262 20.2491 80.8262 18.8449C80.8262 17.3874 80.605 16.3021 80.1625 15.5892C79.7201 14.8763 78.8653 14.524 77.5981 14.5324C76.3091 14.5324 75.3909 14.9089 74.8432 15.6619C74.2956 16.4149 74.021 17.4725 74.0193 18.8349C74.0193 20.1706 74.2881 21.1565 74.8257 21.7926C75.3633 22.4287 76.2891 22.7576 77.6031 22.7793C78.867 22.7593 79.7193 22.4496 80.16 21.8502H80.1625Z" fill="white"/>
<path d="M99.7244 32.8247C99.7244 32.9424 99.7895 32.7571 99.9222 32.2687C100.103 31.4439 100.223 30.6068 100.28 29.7643C100.387 28.5956 100.441 26.982 100.441 24.9234C100.441 22.0083 100.321 19.827 100.083 18.3794C99.8438 16.9319 99.5274 15.9878 99.1333 15.547C98.9383 15.3282 98.6973 15.1552 98.4275 15.0405C98.1578 14.9258 97.866 14.8721 97.5731 14.8833C96.1607 14.8833 94.8817 15.7081 93.7364 17.3577L93.6989 18.5046C93.6504 20.1308 93.6271 21.55 93.6287 22.7621C93.6287 24.986 93.6821 26.8451 93.789 28.3394C93.8958 29.8336 94.0152 30.9873 94.1471 31.8004C94.2807 32.6118 94.3466 32.9458 94.3449 32.8022H88.6074C88.655 32.6093 88.7326 32.1385 88.8403 31.3847C88.948 30.6309 89.0557 29.539 89.1634 28.104C89.2711 26.6689 89.3237 25.0086 89.3237 23.1178C89.3237 21.2269 89.2711 19.5916 89.1634 18.2066C89.0557 16.8217 88.948 15.7799 88.8403 15.0862C88.7326 14.3925 88.655 13.9617 88.6074 13.7939H93.9868L93.8065 15.9828C95.2173 14.5252 97.0706 13.7956 99.3662 13.7939C100.919 13.7939 102.088 14.1771 102.872 14.9434C103.657 15.7098 104.165 16.8092 104.395 18.2417C104.635 19.6758 104.756 21.6602 104.756 24.1946C104.756 26.4886 104.809 28.2759 104.916 29.5565C104.972 30.4604 105.091 31.3592 105.274 32.2462C105.407 32.7596 105.472 32.9449 105.472 32.8022L99.7244 32.8247Z" fill="white"/>
<path d="M126.296 32.8602C126.587 32.8454 126.869 32.7594 127.119 32.6098C127.407 32.4567 127.684 32.2826 127.946 32.0888C128.196 31.9085 128.339 31.7959 128.412 31.7483V32.4645C128.412 32.5146 128.261 32.6573 127.963 32.8952C127.056 33.5656 125.953 33.9177 124.825 33.897C123.49 33.897 122.497 33.5681 121.848 32.9103C121.544 32.621 121.302 32.2734 121.136 31.8882C120.97 31.5031 120.883 31.0883 120.881 30.6689V30.5612C120.261 31.539 119.42 32.3567 118.424 32.9479C117.384 33.579 116.048 33.8953 114.417 33.897C112.861 33.897 111.693 33.5564 110.911 32.8752C110.121 32.1903 109.579 31.2644 109.368 30.2406C109.108 28.9214 108.988 27.5782 109.01 26.2336L109.048 23.5088C109.048 22.1214 108.994 20.764 108.885 19.4367C108.777 18.1094 108.669 17.0158 108.562 16.156C108.454 15.2945 108.377 14.7586 108.329 14.5432H114.067C114.067 14.4004 114.002 14.7936 113.871 15.6902C113.741 16.5867 113.621 17.8765 113.511 19.5269C113.4 21.1773 113.35 23.2208 113.35 25.6601C113.331 27.0432 113.391 28.4262 113.531 29.8024C113.648 30.7691 113.911 31.5162 114.32 32.0438C114.729 32.5714 115.361 32.8343 116.218 32.8326C116.773 32.833 117.321 32.7108 117.823 32.4749C118.325 32.239 118.769 31.8951 119.123 31.4678C119.947 30.5432 120.613 29.4899 121.096 28.3498C121.192 27.4407 121.239 26.7846 121.239 26.3764C121.239 23.7234 121.186 21.5178 121.079 19.7598C120.972 18.0017 120.853 16.651 120.721 15.7077C120.587 14.7627 120.521 14.3746 120.523 14.5432H126.26C126.26 14.3754 126.193 14.7635 126.063 15.7077C125.932 16.6519 125.812 18.0042 125.705 19.7598C125.597 21.5153 125.542 23.7243 125.542 26.3764V31.7558C125.542 32.4896 125.795 32.8602 126.296 32.8602Z" fill="white"/>
<path d="M142.019 14.3721C142.931 14.6726 143.804 15.0822 144.618 15.5918C145.286 16.0342 145.62 16.2796 145.62 16.3281C145.525 16.5668 145.315 17.0627 144.991 17.8156C144.671 18.5695 144.287 19.295 143.844 19.9845C143.401 20.6782 142.99 21.0263 142.607 21.0263C142.466 21.0172 142.331 20.9661 142.22 20.8795C142.108 20.7929 142.025 20.6748 141.981 20.5404C141.755 20.0236 141.57 19.4903 141.425 18.9451C141.222 18.1918 140.964 17.4544 140.654 16.7387C140.381 16.1325 139.969 15.5989 139.452 15.181C138.857 14.7277 138.12 14.4989 137.373 14.5349C136.465 14.5349 135.759 14.7854 135.257 15.2863C134.754 15.7871 134.504 16.4925 134.506 17.4024C134.472 18.2111 134.727 19.0055 135.224 19.6439C135.708 20.2334 136.318 20.7061 137.01 21.0263C137.94 21.4479 138.892 21.8183 139.862 22.1357C140.895 22.4624 141.907 22.8521 142.893 23.3028C143.656 23.6638 144.325 24.198 144.846 24.863C145.396 25.6083 145.675 26.5195 145.635 27.445C145.638 28.5791 145.321 29.6911 144.721 30.6531C144.114 31.6418 143.261 32.4569 142.247 33.0197C141.201 33.6071 140.02 33.9102 138.821 33.8988C137.6 33.877 136.387 33.69 135.217 33.3428C133.969 32.9997 132.742 32.5867 131.54 32.1057C130.418 31.6524 129.857 31.4119 129.857 31.3894C129.996 30.8959 130.163 30.4109 130.358 29.9369C130.661 29.1092 131.039 28.3111 131.488 27.5527C131.907 26.8582 132.319 26.5827 132.725 26.7263C132.992 26.8401 133.222 27.0266 133.389 27.2647C133.616 27.5535 133.932 28.0202 134.338 28.6646C135.09 29.855 135.968 30.9607 136.957 31.9629C137.341 32.3529 137.799 32.6618 138.304 32.8713C138.809 33.0808 139.351 33.1867 139.898 33.1826C140.286 33.193 140.671 33.1181 141.028 32.9632C141.384 32.8083 141.702 32.5771 141.959 32.286C142.47 31.7552 142.758 31.0492 142.765 30.3125C142.765 29.4544 142.348 28.7373 141.513 28.1613C140.678 27.5853 139.387 26.94 137.641 26.2254C136.349 25.6744 135.291 25.1844 134.468 24.7553C133.675 24.3495 132.954 23.8166 132.334 23.1776C131.75 22.5867 131.382 21.8151 131.292 20.9887L131.257 20.4879C131.276 19.4917 131.496 18.5096 131.904 17.6003C132.387 16.519 133.169 15.598 134.157 14.9456C135.234 14.1943 136.669 13.8178 138.46 13.8162C139.669 13.8022 140.872 13.9901 142.019 14.3721V14.3721Z" fill="white"/>
<path d="M163.757 12.0386C165.094 11.2873 166.872 10.7313 169.346 10.1503C166.872 9.56675 165.089 9.02329 163.757 8.26195C164.165 6.77686 165.036 5.13646 166.376 2.97267C164.212 4.31251 162.572 5.18409 161.087 5.5923C160.335 4.25496 159.782 2.47683 159.199 0C158.615 2.47683 158.072 4.25747 157.31 5.5923C155.825 5.18409 154.185 4.31251 152.021 2.97267C153.361 5.13646 154.232 6.77686 154.641 8.26195C153.303 9.01327 151.525 9.56675 149.051 10.1503C151.525 10.7313 153.308 11.2772 154.641 12.0386C154.232 13.5212 153.361 15.164 152.021 17.3253C154.185 15.988 155.825 15.1164 157.31 14.7082C158.062 16.0456 158.615 17.8237 159.199 20.298C159.782 17.8237 160.325 16.0406 161.087 14.7082C162.572 15.1164 164.212 15.988 166.376 17.3253C165.036 15.164 164.165 13.5137 163.757 12.0386Z" fill="white"/>
<path d="M19.6519 12.6693C18.408 10.806 17.0331 9.51546 15.5272 8.79754C14.0212 8.07962 12.7899 7.7207 11.8332 7.7207H0C0.166959 10.4956 0.298876 12.9223 0.395712 15.0009C0.492548 17.0795 0.540149 18.8326 0.538479 20.2601C0.538479 21.6959 0.490879 23.4532 0.395712 25.5318C0.300545 27.6105 0.168628 30.0372 0 32.8121H11.8332C13.0303 32.8121 14.381 32.4055 15.8853 31.5924C17.3896 30.7793 18.7044 29.4345 19.8297 27.5579C20.955 25.6813 21.5169 23.2487 21.5152 20.2601C21.5152 17.0662 20.8941 14.5359 19.6519 12.6693ZM15.457 25.9025C15.0812 27.5378 14.3254 29.0616 13.2507 30.3503C12.7694 30.9181 12.1666 31.3704 11.4868 31.6739C10.8071 31.9773 10.0679 32.1241 9.32381 32.1033C7.97915 32.0773 6.64739 31.8355 5.37941 31.3871C5.02546 26.9544 4.846 23.2813 4.84099 20.3678C4.84099 17.4452 5.02629 13.5609 5.37941 9.12813C6.64728 8.67905 7.97902 8.43641 9.32381 8.40941C10.0679 8.38828 10.8073 8.53485 11.4871 8.83832C12.1669 9.14179 12.7696 9.59437 13.2507 10.1625C14.3254 11.4511 15.0812 12.9749 15.457 14.6102C15.9089 16.4969 16.1367 18.4303 16.1358 20.3703C16.1353 22.2351 15.9074 24.0929 15.457 25.9025V25.9025Z" fill="white"/>
</svg>
